<svg xmlns="http://www.w3.org/2000/svg" width="512" height="512" viewBox="0 0 512 512" role="img" aria-labelledby="title desc">
  <title id="title">Claude Kitchen brand mark</title>
  <desc id="desc">An orange rounded-square logo with cream kitchen tools arranged in a circle.</desc>
  <defs>
    <linearGradient id="bg" x1="0%" y1="0%" x2="100%" y2="100%">
      <stop offset="0%" stop-color="#EC7A47"/>
      <stop offset="100%" stop-color="#D65D31"/>
    </linearGradient>
    <filter id="paperShadow" x="-20%" y="-20%" width="140%" height="160%">
      <feDropShadow dx="0" dy="8" stdDeviation="6" flood-color="#7D3019" flood-opacity="0.28"/>
    </filter>
    <style>
      .tool-fill { fill: #FBF1E8; }
      .tool-stroke { stroke: #FBF1E8; stroke-linecap: round; stroke-linejoin: round; }
    </style>
  </defs>

  <rect width="512" height="512" rx="84" fill="url(#bg)"/>
  <rect width="512" height="512" rx="84" fill="#FFFFFF" opacity="0.04"/>

  <g filter="url(#paperShadow)">
    <g transform="translate(120 130) rotate(39 58 22)">
      <ellipse class="tool-fill" cx="22" cy="22" rx="22" ry="26"/>
      <rect class="tool-fill" x="28" y="9" width="126" height="26" rx="13"/>
    </g>

    <g transform="translate(183 86)">
      <path class="tool-fill" d="M41 2c17 14 24 35 19 58-3 14 1 30 14 45 12 13 15 34 6 52-12 26-44 39-71 28-33-13-47-54-26-85 4 21 14 34 28 39-6-20-5-38 2-55C20 34 28 16 41 2Z"/>
    </g>

    <g transform="translate(214 42)">
      <path class="tool-fill" d="M43 0c14 0 25 7 32 18 7-11 18-18 32-18 24 0 43 18 46 42 19 3 33 20 33 40 0 23-18 41-41 41h-8l-18 111c-2 15-15 27-31 27H62c-16 0-29-12-31-27L13 123H6c-23 0-41-18-41-41 0-20 14-37 33-40C1 18 20 0 43 0Z"/>
      <rect x="86" y="74" width="18" height="56" rx="9" fill="#D65D31"/>
    </g>

    <g transform="translate(307 69) rotate(18 33 116)">
      <path class="tool-fill" d="M24 0c18 34 25 75 24 116l39 21c5 3 8 8 8 14 0 10-8 18-18 18-3 0-6-1-9-3L12 135C4 131 0 123 0 114 1 73 9 32 24 0Z"/>
    </g>

    <g transform="translate(358 149) rotate(23 64 52)">
      <path class="tool-fill" d="M126 4c11 0 20 9 20 20s-9 20-20 20c-5 0-10-2-13-5L88 55c-7 4-18 13-33 28-20 20-29 34-42 58l-13-6c6-27 15-46 30-67 14-19 29-33 46-42l18-24C98 7 112 4 126 4Z"/>
      <ellipse cx="126" cy="24" rx="9" ry="11" fill="#D65D31"/>
      <path class="tool-stroke" d="M12 140c22-24 46-39 80-46 27-5 58-4 86 3" fill="none" stroke-width="18"/>
    </g>

    <g transform="translate(350 290) rotate(24 78 25)">
      <rect class="tool-fill" x="0" y="12" width="126" height="26" rx="13"/>
      <ellipse class="tool-stroke" cx="132" cy="25" rx="30" ry="22" fill="none" stroke-width="16"/>
    </g>

    <g transform="translate(286 356) rotate(28 38 57)">
      <rect class="tool-fill" x="26" y="0" width="24" height="94" rx="12"/>
      <path class="tool-fill" d="M0 90c0-8 7-15 15-15h47c8 0 15 7 15 15v46c0 8-7 15-15 15H15c-8 0-15-7-15-15V90Z"/>
      <rect x="18" y="98" width="8" height="34" rx="4" fill="#D65D31"/>
      <rect x="35" y="98" width="8" height="34" rx="4" fill="#D65D31"/>
      <rect x="52" y="98" width="8" height="34" rx="4" fill="#D65D31"/>
    </g>

    <g transform="translate(233 340)">
      <path class="tool-fill" d="M28 0c11 0 20 9 20 20v116c0 16-13 29-29 29H9c-16 0-29-13-29-29V20C-20 9-11 0 0 0h28Z"/>
    </g>

    <g transform="translate(168 338) rotate(14 31 79)">
      <path class="tool-fill" d="M26 0c10 0 18 8 18 18v111c0 15-12 27-27 27h-8c-15 0-27-12-27-27V18C-18 8-10 0 0 0h26Z"/>
    </g>

    <g transform="translate(70 309) rotate(-27 58 62)">
      <rect class="tool-fill" x="64" y="0" width="20" height="82" rx="10"/>
      <path class="tool-stroke" d="M62 72c-8-31-24-55-49-72C4 15 0 31 0 44c0 33 22 63 57 80" fill="none" stroke-width="11"/>
      <path class="tool-stroke" d="M61 72c-10-27-20-47-35-63" fill="none" stroke-width="8"/>
      <path class="tool-stroke" d="M61 72c-2-29-7-49-18-67" fill="none" stroke-width="8"/>
      <path class="tool-stroke" d="M61 72c6-24 7-46 5-67" fill="none" stroke-width="8"/>
    </g>

    <g transform="translate(57 243) rotate(-8 83 27)">
      <path class="tool-fill" d="M0 29C0 13 13 0 29 0h131c12 0 22 10 22 22v10c0 12-10 22-22 22H29C13 54 0 41 0 25v4Z"/>
      <rect x="15" y="14" width="38" height="16" rx="8" fill="#D65D31"/>
      <rect x="15" y="35" width="24" height="10" rx="5" fill="#D65D31"/>
    </g>
  </g>
</svg>
